<svg width="24" height="30" viewBox="0 0 24 30" fill="none" xmlns="http://www.w3.org/2000/svg">
<path d="M23.8018 3.51775C23.7909 3.49599 23.7654 3.48149 23.74 3.48874C23.5182 3.58302 23.2965 3.66279 23.0675 3.74619C22.4386 3.97825 21.7843 4.13054 21.1299 4.28284C20.3811 4.44963 19.6177 4.56929 18.8725 4.75422C18.2291 4.91014 17.5893 5.09869 16.9713 5.34526C16.506 5.52656 16.0479 5.72236 15.619 5.97255C15.1101 6.25176 14.6993 6.66875 14.2994 7.08211C13.9323 7.46647 13.5615 7.85082 13.238 8.27507C13.0562 8.51438 12.9035 8.77545 12.7581 9.03653C12.9871 8.17354 13.307 7.3033 13.8923 6.61436C13.9359 6.55997 13.885 6.4947 13.8232 6.52371C13.6742 6.59623 13.536 6.6905 13.3943 6.77753C12.311 7.50998 11.344 8.42011 10.5116 9.42451C10.1044 9.92127 9.71182 10.4289 9.38829 10.9837C9.01387 11.6327 8.73032 12.3326 8.52675 13.0541C8.50494 12.6263 8.54129 12.1984 8.59946 11.7742C8.61036 11.698 8.62127 11.6255 8.6249 11.5493C8.6249 11.4986 8.63944 11.4261 8.58855 11.3971C8.5522 11.3789 8.51585 11.3971 8.4904 11.4261C8.45768 11.4587 8.43224 11.495 8.40316 11.5312C8.34499 11.6074 8.28683 11.6871 8.2323 11.7669C8.05054 12.0244 7.88696 12.2963 7.74519 12.5791C7.39621 13.2935 7.07631 14.015 6.75278 14.7402C6.42562 15.4654 6.1239 16.2051 5.80763 16.934C5.50591 17.6229 5.17511 18.301 4.83341 18.9718C4.64801 19.3307 4.45898 19.6897 4.23724 20.0306C4.14272 20.1756 4.04457 20.317 3.94279 20.4548C3.95733 20.4258 3.97187 20.4004 3.98641 20.3714C4.28449 19.7876 4.48806 19.164 4.67346 18.5367C4.82614 18.1342 4.97881 17.7317 5.14967 17.3401C5.3496 16.8941 5.52773 16.4408 5.69858 15.9839C6.04029 15.121 6.4547 14.2942 6.92727 13.4929C7.23263 12.9744 7.55979 12.4667 7.85788 11.941C8.13779 11.4478 8.35953 10.9257 8.614 10.4217C8.80303 10.0446 8.99569 9.66745 9.15927 9.27947C9.20653 9.17069 9.25379 9.05828 9.29741 8.94588C9.31559 8.89149 9.3374 8.83347 9.3483 8.77545C9.3483 8.7537 9.35194 8.72832 9.3374 8.70656C9.30468 8.6558 9.23925 8.67393 9.19926 8.70656C9.08294 8.79358 8.97388 8.88423 8.86119 8.97851C8.49767 9.28672 8.11961 9.5768 7.73065 9.85238C8.5631 8.84435 9.45009 7.81456 9.84996 6.54546C9.87904 6.43668 9.95901 6.16473 9.87904 6.07408C9.82451 6.02694 9.76271 6.09221 9.73 6.1321C9.39193 6.55271 9.03568 6.95883 8.63944 7.32505C8.79212 7.08574 8.93753 6.83917 9.06839 6.58535C9.2865 6.15023 9.50098 5.71148 9.6791 5.25823C9.88995 4.70345 10.0499 4.13417 10.2171 3.56851C10.388 2.95209 10.5406 2.32842 10.726 1.71563C10.7442 1.65761 10.7624 1.59959 10.7733 1.53795C10.7733 1.51982 10.7806 1.49807 10.7733 1.47994C10.7624 1.4473 10.7224 1.42555 10.6897 1.43642C10.6606 1.44368 10.6315 1.46181 10.6061 1.48356C10.2353 1.83166 9.90449 2.21964 9.54824 2.57861C9.28651 2.84694 9.02114 3.11889 8.77031 3.39809C8.26502 3.971 7.81426 4.59467 7.45801 5.26911C7.13448 5.8819 6.89819 6.54546 6.75278 7.22353C6.55648 8.10827 6.49105 9.01477 6.36745 9.91039C6.22568 9.52241 6.14207 9.11267 6.1239 8.69568C6.11663 8.55789 6.10935 8.41285 6.10208 8.26419C6.10208 8.19529 6.10208 8.04663 5.99666 8.07926C5.96395 8.09739 5.94577 8.13365 5.9276 8.16991C5.89488 8.23518 5.8658 8.30407 5.83672 8.37297C5.74584 8.58328 5.64405 8.78633 5.54954 8.99301C5.28053 9.57318 5.04788 10.1751 4.92792 10.8024C4.8225 11.3173 4.76797 11.8431 4.76797 12.3652C4.76797 13.0977 4.88066 13.8192 4.87703 14.5553C4.67709 14.2326 4.47352 13.9062 4.38991 13.5291C4.34629 13.3515 4.31357 13.1738 4.28449 12.9961C4.27722 12.9454 4.26632 12.891 4.25905 12.8402C4.25178 12.8039 4.25178 12.7568 4.22269 12.7314C4.15726 12.6807 4.11364 12.7677 4.0991 12.8221C3.9755 13.2137 3.9137 13.627 3.89916 14.0404C3.88099 14.4574 3.92097 14.8744 3.96096 15.2914C3.99731 15.6685 4.0373 16.0456 4.06275 16.4263C4.04457 16.5641 4.0373 16.7019 4.02639 16.8397C3.98277 17.5177 3.90643 18.1958 3.77557 18.863C3.68832 19.3996 3.57563 19.929 3.3866 20.4439C3.27755 20.8102 3.13577 21.1655 2.95765 21.5027C2.92857 21.5499 2.90312 21.6006 2.87768 21.6478C2.52506 22.2751 2.20153 22.9169 1.84528 23.5405C1.63081 23.9068 1.4236 24.2802 1.23094 24.661C1.08917 24.9075 0.9583 25.1577 0.845609 25.4152C0.747459 25.6327 0.652944 25.8539 0.5657 26.0751C0.532983 26.1694 0.438469 26.3579 0.489361 26.4522C0.5657 26.5211 0.627498 26.4305 0.674756 26.3326C0.685661 26.3217 0.696567 26.3108 0.703837 26.2999C0.732919 26.26 0.758365 26.2202 0.780176 26.1766C0.838339 26.0787 0.896502 25.9845 0.95103 25.8902C1.19095 25.4732 1.4236 25.0526 1.65989 24.632C2.0125 23.9793 2.39783 23.3447 2.7868 22.7102C2.85223 22.605 2.91403 22.4999 2.97946 22.3911C3.05944 22.2751 3.13941 22.1627 3.22302 22.0466C3.37206 21.8436 3.53201 21.6478 3.7065 21.4665C3.92097 21.2308 4.18998 21.0023 4.44081 20.8029C4.80432 20.5092 5.13149 20.1756 5.45139 19.8384C6.1966 19.0298 6.89819 18.1813 7.62523 17.3546C8.10871 16.7744 8.62854 16.216 9.18472 15.7084C9.5955 15.3639 10.0208 15.0339 10.4534 14.7185C11.1441 14.2253 11.8711 13.7866 12.5582 13.2862C13.3688 12.6952 14.1613 12.0787 14.8883 11.3862C14.9101 11.3608 14.9356 11.3318 14.921 11.2955C14.9065 11.2484 14.8483 11.2556 14.8083 11.2665C14.6448 11.31 14.4885 11.3753 14.3285 11.4152C14.1649 11.4514 13.9977 11.4841 13.8341 11.5131C13.387 11.6001 12.929 11.6364 12.4746 11.64C12.7327 11.5421 12.9944 11.4478 13.2561 11.3608C13.9068 11.165 14.5648 10.9982 15.2009 10.7589C16.3315 10.3709 17.3203 9.6747 18.2254 8.90962C18.4472 8.72469 18.6725 8.53976 18.8761 8.33308C18.9125 8.28957 18.967 8.24968 18.9743 8.18804C18.9743 8.11552 18.887 8.11552 18.8325 8.13003C18.3236 8.23881 17.811 8.34396 17.2948 8.39835C16.9531 8.43098 16.5969 8.45637 16.2552 8.39472C16.6514 8.27507 17.0513 8.16991 17.4584 8.08651C17.8365 8.01037 18.2182 7.93785 18.5853 7.82544C19.156 7.65865 19.6686 7.33231 20.1048 6.93344C20.3665 6.68325 20.6101 6.41493 20.85 6.14298C21.1045 5.8529 21.3335 5.54106 21.6025 5.26186C21.9551 4.892 22.3404 4.55479 22.7512 4.25383C23.0566 4.01451 23.3837 3.81146 23.7218 3.61928C23.7473 3.60477 23.7727 3.59752 23.7982 3.58302C23.82 3.56851 23.8272 3.54313 23.8163 3.51775H23.8018ZM3.93552 20.7449C3.93552 20.7449 3.93551 20.7449 3.92824 20.7449H3.93188H3.93552ZM4.80432 16.8469C5.08423 15.9332 5.35324 15.0158 5.64405 14.1057C5.91669 13.1738 6.18933 12.2419 6.47651 11.3173C6.7964 10.2222 7.05087 9.10905 7.38894 8.01762C7.62886 7.24891 7.89786 6.48745 8.19959 5.74049C8.47222 5.06605 8.77758 4.40249 9.19199 3.80058C8.85392 4.60192 8.50494 5.39602 8.21049 6.21187C7.92695 6.92619 7.68702 7.65502 7.47982 8.39472C6.97453 10.0301 6.66917 11.7198 6.18206 13.3587C5.97485 14.0839 5.7422 14.8019 5.49137 15.5162C5.31325 16.0275 5.10241 16.5387 4.92792 17.05C4.53896 18.1849 4.17907 19.3307 3.73558 20.4476C3.72831 20.4548 3.72104 20.4621 3.71377 20.4693C3.69923 20.4657 3.68469 20.4693 3.67378 20.4729C3.75012 20.2336 3.82282 19.9907 3.88462 19.7477C4.17907 18.776 4.5026 17.8151 4.80432 16.8469ZM15.7317 7.93422C15.31 8.2243 14.8883 8.51438 14.4885 8.82984C13.8232 9.35924 13.1762 9.90677 12.5327 10.4615C12.1583 10.7951 11.8202 11.1686 11.4676 11.5276C11.1186 11.8902 10.766 12.2455 10.4352 12.6226C9.99537 13.1122 9.5446 13.5944 9.12292 14.1021C8.75213 14.5372 8.41406 15.0013 8.07962 15.4654C7.83243 15.7954 7.5816 16.1254 7.34895 16.4662C7.07268 16.8614 6.7855 17.2458 6.50922 17.641C6.23295 18.0399 5.96031 18.4388 5.69131 18.8412C5.52045 19.0951 5.3496 19.3525 5.14967 19.5882C4.91338 19.8674 4.66982 20.1611 4.40082 20.4186C4.29903 20.5092 4.20088 20.5999 4.10273 20.6941C4.10273 20.6941 4.10273 20.6941 4.0991 20.6941C4.05184 20.6833 4.05184 20.6397 4.06275 20.6035C4.25541 20.3895 4.44808 20.1792 4.63711 19.9617C4.86612 19.697 5.07333 19.4141 5.26599 19.1241C6.29111 17.6302 7.32714 16.1399 8.4286 14.6967C8.83938 14.1637 9.26469 13.6379 9.72273 13.1448C10.5116 12.3108 11.3258 11.5058 12.1401 10.6936C13.1907 9.64932 14.3103 8.6703 15.5281 7.82544C16.4987 7.17276 17.5311 6.61436 18.5962 6.1321C17.6002 6.66512 16.6696 7.31418 15.7317 7.93785V7.93422Z" fill="currentColor"/>
<path d="M16.6258 26.2825C16.5968 26.3441 16.5568 26.3985 16.5132 26.4493C16.0551 26.9243 15.379 27.1709 14.7392 27.2978C14.0921 27.4319 13.4269 27.3087 12.7944 27.1672C13.4233 26.6487 14.1285 26.0432 14.2702 25.1983C14.4084 24.1867 13.4523 23.5304 12.5326 23.4868C9.45726 23.3853 6.67998 25.0497 4.07356 26.4892C3.08479 27.0295 1.98333 27.722 0.809162 27.4501C0.645579 27.4029 0.47836 27.2978 0.427468 27.1237C0.431103 27.0766 0.409292 27.0222 0.362034 27.0004C-0.00148404 26.9279 0.256614 27.4392 0.423832 27.5298C1.867 28.3529 3.87362 26.8264 5.14957 26.1665C6.46551 25.4485 7.82507 24.7233 9.25733 24.2556C10.446 23.9038 11.8529 23.5122 13.0779 23.8422C13.7032 24.0235 14.1903 24.6762 13.9903 25.3289C13.7395 26.0831 13.0888 26.6161 12.4817 27.0875C11.5257 26.859 10.5333 26.6088 9.54451 26.7503C8.99923 26.8482 8.37035 27.0403 8.09771 27.5625C7.67239 28.4182 8.7375 28.585 9.35548 28.5669C10.5151 28.5306 11.6202 28.0556 12.5363 27.3558C13.5759 27.6277 14.6047 27.7293 15.6189 27.3014C16.0769 27.0911 16.5968 26.859 16.844 26.3913C16.9203 26.2499 16.6949 26.1338 16.6222 26.2752L16.6258 26.2825ZM9.32276 28.3239C8.98833 28.2986 8.39943 28.3457 8.25765 27.9722C8.23584 27.5008 8.75931 27.2253 9.15191 27.1056C10.1589 26.801 11.2203 27.0548 12.2164 27.2869C11.3766 27.8997 10.3697 28.2949 9.32276 28.3239Z" fill="currentColor"/>
</svg>
