<svg width="200" height="280" viewBox="0 0 200 280" fill="none" xmlns="http://www.w3.org/2000/svg">
<g clip-path="url(#clip0_540_4817)">
<path d="M199.969 17.0434C199.877 16.8912 199.662 16.7897 199.446 16.8405C197.569 17.4999 195.692 18.0579 193.754 18.6413C188.431 20.2645 182.892 21.3298 177.354 22.3951C171.016 23.5618 164.554 24.3988 158.246 25.6924C152.8 26.783 147.385 28.1019 142.154 29.8266C138.216 31.0948 134.339 32.4645 130.708 34.2145C126.4 36.1675 122.923 39.0844 119.539 41.9758C116.431 44.6644 113.292 47.3529 110.554 50.3205C109.016 51.9945 107.723 53.8206 106.492 55.6468C108.431 49.6103 111.139 43.523 116.092 38.7039C116.462 38.3235 116.031 37.8669 115.508 38.0698C114.246 38.5771 113.077 39.2365 111.877 39.8453C102.708 44.9687 94.5233 51.335 87.4771 58.3607C84.031 61.8355 80.7079 65.3865 77.9694 69.2671C74.8002 73.8072 72.4002 78.7024 70.6771 83.7497C70.4925 80.7568 70.8002 77.7639 71.2925 74.7964C71.3848 74.2637 71.4771 73.7564 71.5079 73.2238C71.5079 72.8687 71.631 72.3615 71.2002 72.1585C70.8925 72.0317 70.5848 72.1585 70.3694 72.3615C70.0925 72.5897 69.8771 72.8434 69.631 73.097C69.1386 73.6296 68.6463 74.1876 68.1848 74.7456C66.6463 76.5464 65.2617 78.4487 64.0617 80.4271C61.1079 85.4237 58.4002 90.4711 55.6617 95.5438C52.8925 100.617 50.3386 105.791 47.6617 110.889C45.1079 115.708 42.3079 120.451 39.4156 125.143C37.8463 127.654 36.2463 130.165 34.3694 132.549C33.5694 133.564 32.7387 134.553 31.8771 135.517C32.0002 135.314 32.1233 135.136 32.2463 134.934C34.7694 130.85 36.4925 126.487 38.0617 122.1C39.354 119.284 40.6463 116.469 42.0925 113.73C43.7848 110.61 45.2925 107.439 46.7387 104.244C49.631 98.207 53.1386 92.4241 57.1386 86.8187C59.7233 83.1917 62.4925 79.6408 65.0156 75.9631C67.3848 72.5136 69.2617 68.8613 71.4156 65.3357C73.0156 62.6979 74.6463 60.0601 76.031 57.3462C76.431 56.5853 76.831 55.799 77.2002 55.0127C77.354 54.6323 77.5387 54.2265 77.631 53.8206C77.631 53.6685 77.6617 53.4909 77.5387 53.3387C77.2617 52.9836 76.7079 53.1105 76.3694 53.3387C75.3848 53.9475 74.4617 54.5815 73.5079 55.241C70.431 57.3969 67.231 59.426 63.9387 61.3536C70.9848 54.3025 78.4925 47.0993 81.8771 38.222C82.1233 37.4611 82.8002 35.5588 82.1233 34.9247C81.6617 34.595 81.1386 35.0515 80.8617 35.3305C78.0002 38.2727 74.9848 41.1135 71.631 43.6752C72.9233 42.0012 74.154 40.2765 75.2617 38.501C77.1079 35.4574 78.9233 32.3884 80.431 29.2179C82.2156 25.3373 83.5694 21.3552 84.9848 17.3985C86.431 13.0866 87.7233 8.72409 89.2925 4.43764C89.4463 4.03182 89.6002 3.626 89.6925 3.19482C89.6925 3.068 89.754 2.91582 89.6925 2.789C89.6002 2.56073 89.2617 2.40855 88.9848 2.48464C88.7386 2.53536 88.4925 2.66218 88.2771 2.81436C85.1386 5.24927 82.3387 7.96318 79.3233 10.4742C77.1079 12.3511 74.8617 14.2534 72.7386 16.2064C68.4617 20.2138 64.6463 24.5764 61.631 29.294C58.8925 33.5805 56.8925 38.222 55.6617 42.965C54.0002 49.1537 53.4463 55.4946 52.4002 61.7595C51.2002 59.0455 50.4925 56.1795 50.3387 53.2626C50.2771 52.2988 50.2156 51.2843 50.154 50.2444C50.154 49.7625 50.154 48.7225 49.2617 48.9508C48.9848 49.0776 48.831 49.3313 48.6771 49.5849C48.4002 50.0415 48.154 50.5234 47.9079 51.0053C47.1386 52.4764 46.2771 53.8967 45.4771 55.3425C43.2002 59.4006 41.231 63.611 40.2156 67.9989C39.3233 71.6005 38.8617 75.2783 38.8617 78.9306C38.8617 84.0541 39.8156 89.1014 39.7848 94.2503C38.0925 91.9929 36.3694 89.7102 35.6617 87.0724C35.2925 85.8295 35.0156 84.5867 34.7694 83.3439C34.7079 82.9888 34.6156 82.6084 34.554 82.2533C34.4925 81.9996 34.4925 81.6699 34.2463 81.4924C33.6925 81.1373 33.3233 81.746 33.2002 82.1264C32.154 84.8657 31.631 87.7572 31.5079 90.6486C31.354 93.5655 31.6925 96.4823 32.031 99.3991C32.3387 102.037 32.6771 104.675 32.8925 107.338C32.7387 108.302 32.6771 109.266 32.5848 110.229C32.2156 114.972 31.5694 119.715 30.4617 124.382C29.7233 128.136 28.7694 131.839 27.1694 135.441C26.2463 138.003 25.0463 140.488 23.5387 142.847C23.2925 143.177 23.0771 143.532 22.8617 143.862C19.8771 148.249 17.1387 152.739 14.1233 157.101C12.3079 159.663 10.554 162.276 8.92327 164.939C7.72327 166.663 6.61558 168.414 5.66173 170.214C4.83096 171.736 4.03096 173.283 3.2925 174.831C3.01558 175.49 2.21558 176.809 2.64635 177.468C3.2925 177.95 3.81558 177.316 4.21558 176.631C4.30789 176.555 4.40019 176.479 4.46173 176.403C4.70789 176.124 4.92327 175.845 5.10789 175.541C5.60019 174.856 6.0925 174.196 6.55404 173.537C8.58481 170.62 10.554 167.678 12.554 164.736C15.5387 160.17 18.8002 155.732 22.0925 151.293C22.6463 150.558 23.1694 149.822 23.7233 149.061C24.4002 148.249 25.0771 147.463 25.7848 146.652C27.0463 145.231 28.4002 143.862 29.8771 142.593C31.6925 140.945 33.9694 139.347 36.0925 137.952C39.1694 135.897 41.9387 133.564 44.6463 131.205C50.954 125.549 56.8925 119.614 63.0463 113.831C67.1386 109.773 71.5387 105.867 76.2463 102.316C79.7233 99.9064 83.3233 97.5983 86.9848 95.3916C92.831 91.9422 98.9848 88.8732 104.8 85.373C111.662 81.2387 118.369 76.9269 124.523 72.0825C124.708 71.9049 124.923 71.702 124.8 71.4484C124.677 71.1186 124.185 71.1694 123.846 71.2455C122.462 71.5498 121.139 72.0064 119.785 72.2854C118.4 72.539 116.985 72.7673 115.6 72.9702C111.816 73.5789 107.939 73.8325 104.092 73.8579C106.277 73.1731 108.492 72.5136 110.708 71.9049C116.216 70.5353 121.785 69.3685 127.169 67.6945C136.739 64.9806 145.108 60.1108 152.769 54.7591C154.646 53.4655 156.554 52.172 158.277 50.7263C158.585 50.4219 159.046 50.1429 159.108 49.7117C159.108 49.2045 158.369 49.2045 157.908 49.3059C153.6 50.0668 149.262 50.8024 144.892 51.1828C142 51.4111 138.985 51.5886 136.092 51.1575C139.446 50.3205 142.831 49.5849 146.277 49.0015C149.477 48.4689 152.708 47.9616 155.816 47.1754C160.646 46.0086 164.985 43.7259 168.677 40.9359C170.892 39.1858 172.954 37.3089 174.985 35.4066C177.139 33.3775 179.077 31.1963 181.354 29.2433C184.339 26.6562 187.6 24.2974 191.077 22.1922C193.662 20.5182 196.431 19.0978 199.292 17.7535C199.508 17.6521 199.723 17.6014 199.939 17.4999C200.123 17.3985 200.185 17.2209 200.092 17.0434H199.969ZM31.8156 137.546C31.8156 137.546 31.8156 137.546 31.754 137.546H31.7848H31.8156ZM39.1694 110.28C41.5387 103.888 43.8156 97.4715 46.2771 91.1052C48.5848 84.5867 50.8925 78.0683 53.3233 71.6005C56.031 63.9407 58.1848 56.1541 61.0463 48.5196C63.0771 43.1425 65.354 37.8162 67.9079 32.5913C70.2156 27.8736 72.8002 23.2321 76.3079 19.0217C73.4463 24.6271 70.4925 30.1817 68.0002 35.8885C65.6002 40.8852 63.5694 45.9833 61.8156 51.1575C57.5387 62.5965 54.954 74.4159 50.831 85.8803C49.0771 90.953 47.1079 95.975 44.9848 100.972C43.4771 104.548 41.6925 108.124 40.2156 111.7C36.9233 119.639 33.8771 127.654 30.1233 135.466C30.0617 135.517 30.0002 135.568 29.9387 135.618C29.8156 135.593 29.6925 135.618 29.6002 135.644C30.2463 133.97 30.8617 132.27 31.3848 130.571C33.8771 123.774 36.6156 117.052 39.1694 110.28ZM131.662 47.9363C128.092 49.9654 124.523 51.9944 121.139 54.2011C115.508 57.9042 110.031 61.7341 104.585 65.6147C101.416 67.9482 98.554 70.5606 95.5694 73.0716C92.6156 75.608 89.631 78.0936 86.831 80.7315C83.1079 84.1555 79.2925 87.5289 75.7233 91.0798C72.5848 94.1235 69.7233 97.37 66.8925 100.617C64.8002 102.925 62.6771 105.233 60.7079 107.617C58.3694 110.382 55.9387 113.07 53.6002 115.835C51.2617 118.625 48.954 121.415 46.6771 124.23C45.231 126.006 43.7848 127.806 42.0925 129.455C40.0925 131.408 38.031 133.462 35.754 135.263C34.8925 135.897 34.0617 136.531 33.231 137.191C33.231 137.191 33.231 137.191 33.2002 137.191C32.8002 137.115 32.8002 136.81 32.8925 136.557C34.5233 135.06 36.154 133.589 37.754 132.067C39.6925 130.216 41.4463 128.238 43.0771 126.208C51.754 115.759 60.5233 105.334 69.8463 95.2395C73.3233 91.511 76.9233 87.8333 80.8002 84.3838C87.4771 78.5502 94.3694 72.9195 101.262 67.238C110.154 59.9333 119.631 53.0851 129.939 47.1754C138.154 42.6099 146.892 38.7039 155.908 35.3305C147.477 39.059 139.6 43.5991 131.662 47.9616V47.9363Z" fill="currentColor"/>
<path d="M139.231 176.276C138.985 176.707 138.647 177.087 138.277 177.443C134.4 180.765 128.677 182.49 123.262 183.378C117.785 184.316 112.154 183.454 106.801 182.464C112.124 178.837 118.093 174.602 119.293 168.692C120.462 161.616 112.37 157.025 104.585 156.72C78.5544 156.01 55.0467 167.652 32.9851 177.722C24.6159 181.501 15.2928 186.345 5.35435 184.443C3.96973 184.113 2.55435 183.378 2.12358 182.16C2.15435 181.83 1.96973 181.45 1.56973 181.298C-1.50719 180.791 0.677425 184.367 2.09281 185.001C14.3082 190.758 31.2928 180.08 42.0928 175.464C53.2313 170.442 64.739 165.369 76.862 162.098C86.9236 159.637 98.8313 156.898 109.201 159.206C114.493 160.474 118.616 165.04 116.924 169.605C114.801 174.881 109.293 178.609 104.154 181.907C96.062 180.309 87.662 178.559 79.2928 179.548C74.6774 180.233 69.3544 181.577 67.0467 185.229C63.4467 191.215 72.462 192.382 77.6928 192.255C87.5082 192.001 96.862 188.679 104.616 183.783C113.416 185.686 122.124 186.396 130.708 183.403C134.585 181.932 138.985 180.309 141.077 177.037C141.724 176.048 139.816 175.236 139.201 176.225L139.231 176.276ZM77.4159 190.556C74.5851 190.378 69.6005 190.708 68.4005 188.095C68.2159 184.798 72.6467 182.87 75.9697 182.033C84.4928 179.903 93.4774 181.678 101.908 183.302C94.8005 187.588 86.2774 190.353 77.4159 190.556Z" fill="currentColor"/>
</g>
<path d="M13.2728 266.219V234.525H0.796875V227.159H34.7716V234.525H22.2956V266.219H13.2728Z" fill="currentColor"/>
<path d="M54.6046 266.219V260.36L54.0476 259.077V248.586C54.0476 246.726 53.4721 245.276 52.321 244.234C51.2071 243.192 49.4805 242.672 47.1413 242.672C45.5447 242.672 43.9666 242.932 42.4071 243.453C40.8848 243.936 39.5852 244.606 38.5084 245.462L35.3894 239.379C37.0232 238.226 38.9911 237.333 41.2932 236.701C43.5953 236.069 45.9345 235.752 48.3109 235.752C52.878 235.752 56.424 236.831 58.9489 238.989C61.4738 241.146 62.7362 244.513 62.7362 249.089V266.219H54.6046ZM45.4704 266.666C43.1312 266.666 41.1261 266.275 39.4552 265.494C37.7843 264.675 36.5033 263.578 35.6122 262.202C34.721 260.825 34.2755 259.281 34.2755 257.57C34.2755 255.785 34.7025 254.222 35.5565 252.883C36.4476 251.544 37.84 250.502 39.7337 249.758C41.6274 248.977 44.0966 248.586 47.1413 248.586H55.1059V253.664H48.0881C46.0459 253.664 44.635 253.999 43.8552 254.669C43.1126 255.338 42.7413 256.175 42.7413 257.18C42.7413 258.296 43.1683 259.188 44.0223 259.858C44.9134 260.49 46.1202 260.807 47.6426 260.807C49.0907 260.807 50.3902 260.472 51.5413 259.802C52.6924 259.095 53.5278 258.072 54.0476 256.733L55.3843 260.751C54.7531 262.685 53.6021 264.155 51.9312 265.159C50.2603 266.163 48.1067 266.666 45.4704 266.666Z" fill="currentColor"/>
<path d="M79.415 266.666C76.853 266.666 74.3838 266.368 72.0074 265.773C69.6682 265.14 67.8117 264.359 66.4378 263.429L69.334 257.18C70.7079 258.035 72.3231 258.742 74.1796 259.3C76.0733 259.821 77.9298 260.081 79.7492 260.081C81.7543 260.081 83.1652 259.839 83.9821 259.356C84.8361 258.872 85.2631 258.203 85.2631 257.347C85.2631 256.64 84.9289 256.119 84.2606 255.785C83.6294 255.413 82.7754 255.134 81.6986 254.948C80.6218 254.762 79.4336 254.576 78.134 254.39C76.8716 254.204 75.5906 253.962 74.291 253.664C72.9914 253.329 71.8032 252.846 70.7264 252.213C69.6496 251.581 68.7771 250.725 68.1087 249.647C67.4775 248.568 67.1619 247.173 67.1619 245.462C67.1619 243.564 67.7003 241.89 68.7771 240.44C69.891 238.989 71.4876 237.854 73.5669 237.036C75.6463 236.18 78.134 235.752 81.0302 235.752C83.0724 235.752 85.1517 235.976 87.2682 236.422C89.3846 236.868 91.1484 237.519 92.5593 238.375L89.6631 244.569C88.215 243.713 86.7484 243.137 85.2631 242.839C83.815 242.504 82.4041 242.337 81.0302 242.337C79.0994 242.337 77.6884 242.597 76.7973 243.118C75.9062 243.639 75.4606 244.308 75.4606 245.127C75.4606 245.871 75.7762 246.429 76.4074 246.801C77.0758 247.173 77.9484 247.47 79.0252 247.694C80.102 247.917 81.2716 248.121 82.534 248.307C83.8336 248.456 85.1332 248.698 86.4328 249.033C87.7323 249.368 88.9019 249.851 89.9416 250.484C91.0184 251.079 91.891 251.916 92.5593 252.995C93.2277 254.036 93.5619 255.413 93.5619 257.124C93.5619 258.984 93.0049 260.639 91.891 262.09C90.7771 263.504 89.1619 264.62 87.0454 265.438C84.9661 266.256 82.4226 266.666 79.415 266.666Z" fill="currentColor"/>
<path d="M104.842 260.081L105.064 249.479L119.044 236.199H129.404L115.981 249.87L111.469 253.553L104.842 260.081ZM97.6568 266.219V224.816H106.345V266.219H97.6568ZM119.991 266.219L109.854 253.608L115.312 246.857L130.518 266.219H119.991Z" fill="currentColor"/>
<path d="M133.159 266.219V236.199H141.848V266.219H133.159ZM137.503 232.014C135.907 232.014 134.607 231.549 133.605 230.619C132.602 229.689 132.101 228.536 132.101 227.159C132.101 225.783 132.602 224.63 133.605 223.7C134.607 222.77 135.907 222.305 137.503 222.305C139.1 222.305 140.4 222.751 141.402 223.644C142.405 224.499 142.906 225.615 142.906 226.992C142.906 228.443 142.405 229.652 141.402 230.619C140.437 231.549 139.137 232.014 137.503 232.014Z" fill="currentColor"/>
<path d="M149.704 266.219V235.529C149.704 232.144 150.706 229.447 152.712 227.438C154.717 225.392 157.576 224.369 161.289 224.369C162.551 224.369 163.758 224.499 164.909 224.76C166.097 225.02 167.1 225.429 167.917 225.987L165.633 232.293C165.15 231.958 164.612 231.698 164.018 231.512C163.424 231.326 162.793 231.233 162.124 231.233C160.862 231.233 159.878 231.605 159.172 232.349C158.504 233.055 158.17 234.134 158.17 235.585V238.375L158.393 242.114V266.219H149.704ZM145.081 243.564V236.868H165.856V243.564H145.081Z" fill="currentColor"/>
<path d="M173.25 277.491C171.69 277.491 170.149 277.249 168.627 276.765C167.105 276.282 165.861 275.612 164.895 274.757L168.07 268.563C168.739 269.158 169.5 269.623 170.354 269.958C171.245 270.293 172.117 270.46 172.971 270.46C174.197 270.46 175.162 270.162 175.868 269.567C176.61 269.009 177.279 268.061 177.873 266.721L179.432 263.039L180.101 262.09L190.85 236.199H199.204L185.67 268.061C184.705 270.479 183.591 272.376 182.328 273.752C181.103 275.129 179.729 276.096 178.207 276.654C176.722 277.212 175.069 277.491 173.25 277.491ZM178.374 267.391L165.007 236.199H173.974L184.333 261.309L178.374 267.391Z" fill="currentColor"/>
<defs>
<clipPath id="clip0_540_4817">
<rect width="200" height="189.796" fill="white" transform="translate(0 2.50977)"/>
</clipPath>
</defs>
</svg>
