<svg width="110" height="34" viewBox="0 0 110 34" fill="none" xmlns="http://www.w3.org/2000/svg">
<path d="M29.3831 3.00491C29.3698 2.97839 29.3388 2.96072 29.3078 2.96955C29.0376 3.08445 28.7673 3.18168 28.4882 3.28332C27.7217 3.56615 26.9243 3.75175 26.1268 3.93736C25.2141 4.14064 24.2838 4.28647 23.3755 4.51185C22.5914 4.70188 21.8116 4.93168 21.0584 5.23218C20.4914 5.45314 19.9331 5.69178 19.4103 5.9967C18.7901 6.33698 18.2895 6.84519 17.8021 7.34897C17.3546 7.81741 16.9028 8.28584 16.5084 8.80289C16.2869 9.09455 16.1009 9.41274 15.9236 9.73092C16.2028 8.67915 16.5926 7.61855 17.3059 6.7789C17.3591 6.71261 17.2971 6.63307 17.2217 6.66842C17.0401 6.7568 16.8717 6.8717 16.699 6.97776C15.3787 7.87044 14.2002 8.97966 13.1857 10.2038C12.6895 10.8092 12.211 11.4279 11.8167 12.104C11.3603 12.8951 11.0148 13.748 10.7667 14.6274C10.7401 14.1059 10.7844 13.5845 10.8553 13.0674C10.8686 12.9746 10.8819 12.8862 10.8863 12.7934C10.8863 12.7315 10.904 12.6432 10.842 12.6078C10.7977 12.5857 10.7534 12.6078 10.7224 12.6432C10.6825 12.6829 10.6515 12.7271 10.616 12.7713C10.5452 12.8641 10.4743 12.9613 10.4078 13.0586C10.1863 13.3723 9.98693 13.7038 9.81414 14.0485C9.38883 14.919 8.99895 15.7985 8.60465 16.6823C8.20591 17.5661 7.83819 18.4677 7.45275 19.3559C7.08503 20.1956 6.68186 21.022 6.26541 21.8395C6.03946 22.277 5.80908 22.7145 5.53883 23.1299C5.42364 23.3067 5.30401 23.479 5.17996 23.647C5.19769 23.6116 5.21541 23.5807 5.23313 23.5453C5.59642 22.8338 5.84452 22.0737 6.07047 21.3092C6.25655 20.8187 6.44262 20.3281 6.65085 19.8509C6.89452 19.3073 7.11161 18.7549 7.31984 18.1981C7.73629 17.1463 8.24136 16.1387 8.81731 15.1621C9.18946 14.5302 9.58819 13.9115 9.95148 13.2707C10.2926 12.6697 10.5629 12.0333 10.873 11.419C11.1034 10.9595 11.3382 10.4999 11.5376 10.027C11.5952 9.89443 11.6527 9.75743 11.7059 9.62044C11.7281 9.55415 11.7546 9.48344 11.7679 9.41274C11.7679 9.38622 11.7724 9.35529 11.7546 9.32877C11.7148 9.2669 11.635 9.289 11.5863 9.32877C11.4445 9.43483 11.3116 9.54531 11.1743 9.66021C10.7312 10.0358 10.2705 10.3894 9.79642 10.7252C10.811 9.4967 11.892 8.24165 12.3793 6.69493C12.4148 6.56236 12.5122 6.23092 12.4148 6.12044C12.3483 6.06299 12.273 6.14253 12.2331 6.19115C11.8211 6.70377 11.3869 7.19872 10.904 7.64506C11.0901 7.35339 11.2673 7.05289 11.4268 6.74354C11.6926 6.21324 11.954 5.67852 12.1711 5.12612C12.4281 4.44998 12.623 3.75617 12.8268 3.06678C13.035 2.31551 13.2211 1.55541 13.4471 0.80857C13.4692 0.737863 13.4914 0.667156 13.5046 0.59203C13.5046 0.569934 13.5135 0.543419 13.5046 0.521323C13.4914 0.48155 13.4426 0.455035 13.4027 0.468292C13.3673 0.477131 13.3319 0.499227 13.3009 0.525742C12.849 0.949984 12.4458 1.42284 12.0116 1.86034C11.6926 2.18736 11.3692 2.5188 11.0635 2.85908C10.4477 3.55731 9.89832 4.31741 9.46414 5.13938C9.06984 5.88622 8.78186 6.69493 8.60465 7.52132C8.36541 8.59961 8.28566 9.7044 8.13503 10.7959C7.96224 10.3231 7.86034 9.82372 7.83819 9.31551C7.82933 9.14758 7.82047 8.97082 7.81161 8.78963C7.81161 8.70567 7.81161 8.52448 7.68313 8.56425C7.64326 8.58635 7.6211 8.63054 7.59895 8.67473C7.55908 8.75428 7.52364 8.83824 7.48819 8.92221C7.37743 9.17852 7.25338 9.42599 7.13819 9.67789C6.81034 10.385 6.5268 11.1185 6.3806 11.8831C6.25212 12.5106 6.18566 13.1514 6.18566 13.7877C6.18566 14.6804 6.323 15.5598 6.31857 16.4569C6.0749 16.0636 5.8268 15.6659 5.7249 15.2063C5.67174 14.9898 5.63186 14.7732 5.59642 14.5567C5.58756 14.4948 5.57427 14.4285 5.56541 14.3667C5.55655 14.3225 5.55655 14.265 5.5211 14.2341C5.44136 14.1722 5.38819 14.2783 5.37047 14.3446C5.21984 14.8218 5.14452 15.3256 5.1268 15.8294C5.10465 16.3376 5.15338 16.8458 5.20212 17.354C5.24642 17.8136 5.29515 18.2732 5.32617 18.7372C5.30401 18.9052 5.29515 19.0731 5.28186 19.241C5.2287 20.0674 5.13566 20.8938 4.97617 21.7069C4.86984 22.361 4.7325 23.0062 4.50212 23.6337C4.3692 24.08 4.19642 24.5131 3.97933 24.9241C3.94389 24.9816 3.91288 25.0434 3.88186 25.1009C3.45212 25.8654 3.05781 26.6476 2.62364 27.4077C2.36224 27.854 2.10971 28.3092 1.8749 28.7732C1.70212 29.0737 1.54262 29.3786 1.40528 29.6924C1.28566 29.9576 1.17047 30.2271 1.06414 30.4967C1.02427 30.6116 0.909078 30.8414 0.971104 30.9563C1.06414 31.0403 1.13946 30.9298 1.19705 30.8105C1.21034 30.7972 1.22364 30.7839 1.2325 30.7707C1.26794 30.7221 1.29895 30.6735 1.32553 30.6204C1.39642 30.5011 1.46731 30.3862 1.53376 30.2713C1.82617 29.7631 2.10971 29.2505 2.39769 28.7379C2.82743 27.9424 3.29705 27.169 3.7711 26.3957C3.85085 26.2675 3.92617 26.1394 4.00591 26.0068C4.10338 25.8654 4.20085 25.7284 4.30275 25.587C4.4844 25.3395 4.67933 25.1009 4.89199 24.8799C5.15338 24.5927 5.48123 24.3143 5.78693 24.0712C6.22996 23.7132 6.6287 23.3067 7.01857 22.8957C7.9268 21.9102 8.78186 20.8761 9.66794 19.8685C10.2572 19.1615 10.8907 18.4809 11.5686 17.8622C12.0692 17.4424 12.5876 17.0403 13.1148 16.6558C13.9565 16.0548 14.8426 15.5201 15.68 14.9102C16.6679 14.1899 17.6338 13.4386 18.5198 12.5946C18.5464 12.5636 18.5774 12.5283 18.5597 12.4841C18.542 12.4266 18.4711 12.4355 18.4224 12.4487C18.223 12.5018 18.0325 12.5813 17.8376 12.6299C17.6382 12.6741 17.4344 12.7139 17.235 12.7492C16.6901 12.8553 16.1319 12.8995 15.5781 12.9039C15.8926 12.7846 16.2116 12.6697 16.5306 12.5636C17.3236 12.325 18.1255 12.1217 18.9009 11.83C20.2787 11.3572 21.4838 10.5087 22.5869 9.57625C22.8572 9.35087 23.1319 9.12549 23.38 8.8736C23.4243 8.82056 23.4907 8.77195 23.4996 8.69683C23.4996 8.60844 23.3933 8.60844 23.3268 8.62612C22.7065 8.7587 22.0819 8.88685 21.4527 8.95314C21.0363 8.99291 20.6021 9.02385 20.1857 8.94872C20.6686 8.80289 21.1559 8.67473 21.6521 8.57309C22.1129 8.48029 22.5781 8.3919 23.0255 8.25491C23.7211 8.05163 24.3458 7.6539 24.8774 7.16779C25.1964 6.86286 25.4933 6.53584 25.7857 6.2044C26.0958 5.85087 26.3749 5.47082 26.7027 5.13054C27.1325 4.67978 27.6021 4.2688 28.1027 3.902C28.4749 3.61034 28.8736 3.36286 29.2857 3.12865C29.3167 3.11097 29.3477 3.10213 29.3787 3.08445C29.4053 3.06678 29.4141 3.03584 29.4009 3.00491H29.3831ZM5.1711 24.0005C5.1711 24.0005 5.1711 24.0005 5.16224 24.0005H5.16667H5.1711ZM6.22996 19.2499C6.5711 18.1362 6.89895 17.0182 7.25338 15.9089C7.58566 14.7732 7.91794 13.6375 8.26794 12.5106C8.65781 11.176 8.96794 9.8193 9.37996 8.48913C9.67237 7.55226 10.0002 6.62423 10.3679 5.71387C10.7002 4.8919 11.0724 4.08319 11.5774 3.34961C11.1654 4.32625 10.7401 5.29405 10.3812 6.28837C10.0357 7.15895 9.74326 8.04721 9.49072 8.94872C8.8749 10.9418 8.50275 13.0011 7.90908 14.9986C7.65655 15.8824 7.373 16.7574 7.06731 17.628C6.85022 18.2511 6.59326 18.8742 6.3806 19.4973C5.90655 20.8805 5.46794 22.277 4.92743 23.6381C4.91857 23.647 4.90971 23.6558 4.90085 23.6646C4.88313 23.6602 4.86541 23.6646 4.85212 23.6691C4.94515 23.3774 5.03376 23.0813 5.10908 22.7852C5.46794 21.6009 5.86224 20.4298 6.22996 19.2499ZM19.5477 8.38748C19.0338 8.74102 18.5198 9.09455 18.0325 9.47902C17.2217 10.1242 16.4331 10.7915 15.649 11.4677C15.1926 11.8742 14.7806 12.3294 14.3509 12.7669C13.9255 13.2088 13.4958 13.6419 13.0926 14.1015C12.5565 14.6981 12.0072 15.2858 11.4933 15.9045C11.0414 16.4348 10.6293 17.0005 10.2217 17.5661C9.92047 17.9683 9.61477 18.3704 9.33123 18.7858C8.99452 19.2675 8.64452 19.736 8.30781 20.2177C7.9711 20.7038 7.63883 21.1899 7.31098 21.6804C7.10275 21.9898 6.89452 22.3035 6.65085 22.5908C6.36288 22.931 6.06604 23.289 5.73819 23.6028C5.61414 23.7132 5.49452 23.8237 5.3749 23.9386C5.3749 23.9386 5.3749 23.9386 5.37047 23.9386C5.31288 23.9254 5.31288 23.8723 5.32617 23.8281C5.56098 23.5674 5.79579 23.3111 6.02617 23.0459C6.30528 22.7233 6.55781 22.3786 6.79262 22.0251C8.04199 20.2044 9.30465 18.3881 10.6471 16.6293C11.1477 15.9797 11.666 15.3389 12.2243 14.7379C13.1857 13.7214 14.1781 12.7404 15.1705 11.7505C16.4509 10.4778 17.8154 9.28458 19.2996 8.25491C20.4825 7.45945 21.7407 6.7789 23.0388 6.19115C21.8249 6.84077 20.6907 7.6318 19.5477 8.3919V8.38748Z" fill="currentColor"/>
<path d="M20.6379 30.7485C20.6025 30.8237 20.5538 30.8899 20.5006 30.9518C19.9424 31.5307 19.1183 31.8312 18.3386 31.9859C17.55 32.1494 16.7392 31.9992 15.9683 31.8268C16.7348 31.1949 17.5943 30.4569 17.767 29.4272C17.9354 28.1942 16.7702 27.3944 15.6493 27.3413C11.9012 27.2176 8.51641 29.246 5.33983 31.0004C4.13477 31.6589 2.79236 32.503 1.36135 32.1715C1.16198 32.1141 0.958185 31.9859 0.896159 31.7738C0.90059 31.7163 0.874007 31.65 0.816412 31.6235C0.373374 31.5351 0.687931 32.1583 0.891729 32.2687C2.65059 33.2719 5.09616 31.4114 6.65122 30.6071C8.25502 29.7321 9.91198 28.8483 11.6576 28.2782C13.1063 27.8495 14.8208 27.3723 16.3139 27.7744C17.0759 27.9954 17.6696 28.7908 17.4259 29.5863C17.1202 30.5055 16.3272 31.1551 15.5873 31.7296C14.4221 31.4512 13.2126 31.1463 12.0076 31.3186C11.343 31.4379 10.5765 31.6721 10.2443 32.3085C9.72591 33.3514 11.024 33.5547 11.7772 33.5326C13.1905 33.4884 14.5373 32.9095 15.6538 32.0566C16.9208 32.3881 18.1746 32.5118 19.4107 31.9903C19.9689 31.734 20.6025 31.4512 20.9038 30.8811C20.9968 30.7088 20.7221 30.5673 20.6335 30.7397L20.6379 30.7485ZM11.7373 33.2365C11.3297 33.2056 10.612 33.263 10.4392 32.8079C10.4126 32.2334 11.0506 31.8975 11.5291 31.7517C12.7563 31.3805 14.05 31.6898 15.2639 31.9726C14.2405 32.7195 13.0132 33.2012 11.7373 33.2365Z" fill="#5534DA"/>
<path d="M34.4386 23.5066V10.8716H29.4082V7.93529H43.1072V10.8716H38.0767V23.5066H34.4386Z" fill="currentColor"/>
<path d="M51.104 23.5066V21.1709L50.8795 20.6593V16.4772C50.8795 15.7358 50.6474 15.1574 50.1833 14.7422C49.7341 14.3269 49.038 14.1193 48.0948 14.1193C47.451 14.1193 46.8147 14.2231 46.1859 14.4307C45.5721 14.6235 45.0481 14.8905 44.6139 15.2315L43.3563 12.8069C44.015 12.3472 44.8085 11.9912 45.7367 11.7391C46.665 11.487 47.6082 11.361 48.5664 11.361C50.4079 11.361 51.8377 11.791 52.8557 12.6512C53.8738 13.5113 54.3828 14.8534 54.3828 16.6775V23.5066H51.104ZM47.421 23.6845C46.4778 23.6845 45.6694 23.5288 44.9957 23.2174C44.3219 22.8911 43.8054 22.4537 43.4461 21.905C43.0868 21.3563 42.9071 20.7408 42.9071 20.0586C42.9071 19.3468 43.0793 18.724 43.4236 18.1901C43.783 17.6562 44.3444 17.241 45.1079 16.9444C45.8715 16.633 46.8671 16.4772 48.0948 16.4772H51.3062V18.5015H48.4765C47.6531 18.5015 47.0842 18.635 46.7698 18.9019C46.4704 19.1689 46.3206 19.5025 46.3206 19.9029C46.3206 20.3478 46.4928 20.7037 46.8372 20.9707C47.1965 21.2228 47.683 21.3488 48.2969 21.3488C48.8808 21.3488 49.4048 21.2154 49.8689 20.9484C50.333 20.6667 50.6699 20.2588 50.8795 19.725L51.4184 21.3266C51.1639 22.0977 50.6998 22.6835 50.0261 23.0839C49.3524 23.4843 48.484 23.6845 47.421 23.6845Z" fill="currentColor"/>
<path d="M61.1079 23.6845C60.0748 23.6845 59.0792 23.5659 58.1211 23.3286C57.1778 23.0765 56.4293 22.7651 55.8753 22.3943L57.0431 19.9029C57.5971 20.244 58.2483 20.5258 58.9969 20.7482C59.7604 20.9558 60.509 21.0597 61.2426 21.0597C62.0511 21.0597 62.62 20.9633 62.9494 20.7705C63.2937 20.5777 63.4659 20.3108 63.4659 19.9697C63.4659 19.6879 63.3311 19.4803 63.0617 19.3468C62.8071 19.1985 62.4628 19.0873 62.0286 19.0131C61.5945 18.939 61.1154 18.8648 60.5914 18.7907C60.0823 18.7165 59.5658 18.6202 59.0418 18.5015C58.5178 18.368 58.0387 18.1753 57.6045 17.9232C57.1704 17.671 56.8185 17.33 56.549 16.8999C56.2945 16.4698 56.1673 15.9137 56.1673 15.2315C56.1673 14.4752 56.3844 13.8079 56.8185 13.2295C57.2677 12.6512 57.9115 12.1989 58.7499 11.8726C59.5883 11.5315 60.5914 11.361 61.7591 11.361C62.5826 11.361 63.421 11.4499 64.2744 11.6279C65.1277 11.8059 65.8389 12.0654 66.4078 12.4065L65.24 14.8756C64.6561 14.5345 64.0648 14.3047 63.4659 14.186C62.882 14.0526 62.3131 13.9858 61.7591 13.9858C60.9806 13.9858 60.4117 14.0897 60.0524 14.2973C59.6931 14.5049 59.5134 14.7718 59.5134 15.0981C59.5134 15.3947 59.6407 15.6171 59.8952 15.7654C60.1647 15.9137 60.5165 16.0324 60.9507 16.1213C61.3849 16.2103 61.8565 16.2919 62.3655 16.366C62.8895 16.4253 63.4135 16.5217 63.9375 16.6552C64.4615 16.7887 64.9331 16.9815 65.3523 17.2336C65.7865 17.4708 66.1383 17.8045 66.4078 18.2346C66.6773 18.6498 66.812 19.1985 66.812 19.8807C66.812 20.6222 66.5875 21.2821 66.1383 21.8605C65.6892 22.424 65.0379 22.8689 64.1845 23.1951C63.3461 23.5214 62.3206 23.6845 61.1079 23.6845Z" fill="currentColor"/>
<path d="M71.3601 21.0597L71.45 16.8332L77.0868 11.5389H81.2638L75.8516 16.9889L74.0326 18.457L71.3601 21.0597ZM68.4632 23.5066V7.00101H71.9665V23.5066H68.4632ZM77.4685 23.5066L73.3813 18.4793L75.5821 15.7877L81.713 23.5066H77.4685Z" fill="currentColor"/>
<path d="M82.7781 23.5066V11.5389H86.2814V23.5066H82.7781ZM84.5298 9.87058C83.886 9.87058 83.362 9.6852 82.9577 9.31446C82.5535 8.94371 82.3514 8.48399 82.3514 7.93529C82.3514 7.38659 82.5535 6.92686 82.9577 6.55612C83.362 6.18537 83.886 6 84.5298 6C85.1735 6 85.6975 6.17796 86.1018 6.53387C86.506 6.87496 86.7081 7.31985 86.7081 7.86856C86.7081 8.44692 86.506 8.92888 86.1018 9.31446C85.7125 9.6852 85.1885 9.87058 84.5298 9.87058Z" fill="currentColor"/>
<path d="M89.4491 23.5066V11.272C89.4491 9.92248 89.8533 8.84732 90.6618 8.04651C91.4703 7.23087 92.6231 6.82305 94.1202 6.82305C94.6293 6.82305 95.1158 6.87496 95.58 6.97877C96.0591 7.08258 96.4633 7.2457 96.7927 7.46815L95.8719 9.9818C95.6773 9.84833 95.4602 9.74452 95.2206 9.67037C94.9811 9.59623 94.7266 9.55915 94.4571 9.55915C93.9481 9.55915 93.5513 9.70745 93.2669 10.004C92.9974 10.2858 92.8626 10.7159 92.8626 11.2942V12.4065L92.9525 13.8969V23.5066H89.4491ZM87.5852 14.4752V11.8059H95.9617V14.4752H87.5852Z" fill="currentColor"/>
<path d="M98.9431 28C98.3143 28 97.693 27.9036 97.0791 27.7108C96.4653 27.518 95.9638 27.2511 95.5745 26.91L96.8546 24.4408C97.1241 24.6781 97.431 24.8635 97.7753 24.997C98.1346 25.1304 98.4865 25.1972 98.8308 25.1972C99.3249 25.1972 99.7141 25.0785 99.9986 24.8413C100.298 24.6188 100.568 24.2406 100.807 23.7068L101.436 22.2386L101.705 21.8605L106.04 11.5389H109.408L103.951 24.2406C103.562 25.2046 103.113 25.9609 102.604 26.5096C102.11 27.0583 101.556 27.4439 100.942 27.6663C100.343 27.8888 99.6767 28 98.9431 28ZM101.009 23.9737L95.6194 11.5389H99.235L103.412 21.549L101.009 23.9737Z" fill="currentColor"/>
</svg>
