<svg width="22" height="22" viewBox="0 0 22 22" fill="none" xmlns="http://www.w3.org/2000/svg">
<path d="M18.3462 1.06641H3.46904C2.69611 1.06641 1.95483 1.37345 1.40828 1.92C0.861734 2.46655 0.554688 3.20782 0.554688 3.98076V18.8579C0.554688 19.6309 0.861734 20.3722 1.40828 20.9187C1.95483 21.4652 2.69611 21.7723 3.46904 21.7723H10.2399V14.2146H7.6801V11.2666H10.2399V9.09511C10.2399 7.86441 10.5802 6.90806 11.2609 6.22864C11.9416 5.54794 12.8643 5.20629 14.0303 5.20629C15.1976 5.20629 15.9534 5.25159 16.2989 5.337V7.96147H14.7434C14.1817 7.96147 13.7987 8.08053 13.5929 8.31864C13.3884 8.55547 13.2862 8.91264 13.2862 9.38759V11.2666H16.2018L15.8136 14.2146H13.2862V21.7723H18.3462C19.1192 21.7723 19.8604 21.4652 20.4069 20.9187C20.9536 20.3722 21.2605 19.6309 21.2605 18.8579V3.98076C21.2605 3.20782 20.9536 2.46655 20.4069 1.92C19.8604 1.37345 19.1192 1.06641 18.3462 1.06641Z" fill="currentColor"/>
</svg>
