<svg width="24" height="24" viewBox="0 0 24 24" fill="none" xmlns="http://www.w3.org/2000/svg">
<path d="M12 1.5C17.7984 1.5 22.5 6.32344 22.5 12.2672C22.5 17.025 19.4906 21.0563 15.3188 22.4813C15.2531 22.4953 15.1969 22.5 15.1406 22.5C14.7516 22.5 14.6016 22.2141 14.6016 21.9656C14.6016 21.7078 14.6109 21.0328 14.6156 20.1328C15.0094 20.2219 15.3609 20.2594 15.675 20.2594C17.6953 20.2594 18.1547 18.6891 18.1547 18.6891C18.6328 17.4469 19.3219 17.1141 19.3219 17.1141C20.2359 16.4719 19.3266 16.4531 19.2563 16.4531H19.2516C18.1969 16.5469 17.6437 17.5687 17.6437 17.5687C17.1187 18.4875 16.4156 18.7453 15.7875 18.7453C15.2953 18.7453 14.85 18.5859 14.5875 18.4641C14.4937 17.7703 14.2219 17.2969 13.9219 17.025C16.2516 16.7531 18.7031 15.8297 18.7031 11.7047C18.7031 10.5281 18.2953 9.56719 17.625 8.81719C17.7328 8.54531 18.0938 7.44844 17.5219 5.96719C17.5219 5.96719 17.4469 5.94375 17.2875 5.94375C16.9078 5.94375 16.05 6.08906 14.6344 7.07344C13.7953 6.83437 12.9 6.71719 12.0047 6.7125C11.1141 6.71719 10.2141 6.83437 9.375 7.07344C7.95937 6.08906 7.10156 5.94375 6.72187 5.94375C6.5625 5.94375 6.4875 5.96719 6.4875 5.96719C5.91562 7.44844 6.27656 8.54531 6.38438 8.81719C5.71406 9.57188 5.30625 10.5328 5.30625 11.7047C5.30625 15.8391 7.7625 16.7484 10.1016 17.0156C9.72656 17.3484 9.38906 18.0047 9.38906 19.0078C9.38906 20.4469 9.40313 21.6094 9.40313 21.9609C9.40313 22.2141 9.25781 22.5 8.86875 22.5C8.8125 22.5 8.74688 22.4953 8.68125 22.4813C4.50469 21.0563 1.5 17.0203 1.5 12.2672C1.5 6.32344 6.20156 1.5 12 1.5Z" fill="white"/>
</svg>
