<svg width="26" height="26" viewBox="0 0 26 26" fill="none" xmlns="http://www.w3.org/2000/svg">
<path d="M12.4797 15.3545L9.06595 11.9408C9.01886 11.8937 8.98177 11.8411 8.95469 11.7831C8.9276 11.725 8.91406 11.6628 8.91406 11.5964C8.91406 11.4636 8.95895 11.3483 9.04872 11.2504C9.13848 11.1525 9.25678 11.1035 9.40365 11.1035H16.5952C16.7421 11.1035 16.8604 11.1529 16.9502 11.2518C17.0399 11.3507 17.0848 11.466 17.0848 11.5978C17.0848 11.6308 17.0341 11.7452 16.9327 11.941L13.5192 15.3545C13.4408 15.433 13.3596 15.4903 13.2759 15.5264C13.1921 15.5625 13.1 15.5806 12.9994 15.5806C12.8989 15.5806 12.8068 15.5625 12.723 15.5264C12.6392 15.4903 12.5581 15.433 12.4797 15.3545Z" fill="currentColor"/>
</svg>
