<svg width="20" height="20" viewBox="0 0 20 20" fill="none" xmlns="http://www.w3.org/2000/svg">
<path d="M12.3593 9.99933L6.082 3.72208C5.91641 3.55648 5.83574 3.35937 5.84 3.13074C5.84428 2.90211 5.92922 2.705 6.09482 2.53941C6.26041 2.37381 6.45752 2.29102 6.68615 2.29102C6.91477 2.29102 7.11189 2.37381 7.27748 2.53941L13.6573 8.93204C13.8079 9.08268 13.9196 9.25147 13.9922 9.43843C14.0649 9.62541 14.1012 9.81237 14.1012 9.99933C14.1012 10.1863 14.0649 10.3733 13.9922 10.5602C13.9196 10.7472 13.8079 10.916 13.6573 11.0666L7.26467 17.4592C7.09907 17.6248 6.90409 17.7055 6.67973 17.7012C6.45539 17.697 6.26041 17.612 6.09482 17.4464C5.92922 17.2808 5.84642 17.0837 5.84642 16.8551C5.84642 16.6265 5.92922 16.4294 6.09482 16.2638L12.3593 9.99933Z" fill="currentColor"/>
</svg>
