<svg width="20" height="20" viewBox="0 0 20 20" fill="none" xmlns="http://www.w3.org/2000/svg">
<path d="M4.42341 17.9177C4.00246 17.9177 3.64616 17.7719 3.35449 17.4802C3.06283 17.1886 2.91699 16.8322 2.91699 16.4113V5.25751C2.91699 4.83657 3.06283 4.48026 3.35449 4.18859C3.64616 3.89693 4.00246 3.75109 4.42341 3.75109H5.57726V2.62928C5.57726 2.4466 5.63843 2.29409 5.76076 2.17176C5.88308 2.04944 6.03559 1.98828 6.21828 1.98828C6.40096 1.98828 6.55347 2.04944 6.6758 2.17176C6.79812 2.29409 6.85928 2.4466 6.85928 2.62928V3.75109H13.1734V2.61326C13.1734 2.43591 13.2332 2.28741 13.3528 2.16776C13.4725 2.04811 13.621 1.98828 13.7983 1.98828C13.9757 1.98828 14.1242 2.04811 14.2438 2.16776C14.3635 2.28741 14.4233 2.43591 14.4233 2.61326V3.75109H15.5772C15.9981 3.75109 16.3545 3.89693 16.6461 4.18859C16.9378 4.48026 17.0836 4.83657 17.0836 5.25751V16.4113C17.0836 16.8322 16.9378 17.1886 16.6461 17.4802C16.3545 17.7719 15.9981 17.9177 15.5772 17.9177H4.42341ZM4.42341 16.6677H15.5772C15.6413 16.6677 15.7001 16.641 15.7535 16.5876C15.8069 16.5342 15.8336 16.4754 15.8336 16.4113V8.59084H4.16697V16.4113C4.16697 16.4754 4.19368 16.5342 4.2471 16.5876C4.30053 16.641 4.3593 16.6677 4.42341 16.6677ZM4.16697 7.34087H15.8336V5.25751C15.8336 5.1934 15.8069 5.13463 15.7535 5.0812C15.7001 5.02778 15.6413 5.00107 15.5772 5.00107H4.42341C4.3593 5.00107 4.30053 5.02778 4.2471 5.0812C4.19368 5.13463 4.16697 5.1934 4.16697 5.25751V7.34087Z" fill="currentColor"/>
</svg>
