<svg width="16" height="16" viewBox="0 0 16 16" fill="none" xmlns="http://www.w3.org/2000/svg">
<path d="M7.24112 8.75778H3.95562C3.7428 8.75778 3.56321 8.68459 3.41683 8.53822C3.27045 8.39184 3.19727 8.21225 3.19727 7.99945C3.19727 7.78665 3.27045 7.60706 3.41683 7.46068C3.56321 7.3143 3.7428 7.24112 3.95562 7.24112H7.24112V3.95562C7.24112 3.7428 7.3143 3.56321 7.46068 3.41683C7.60706 3.27045 7.78665 3.19727 7.99945 3.19727C8.21225 3.19727 8.39184 3.27045 8.53822 3.41683C8.68459 3.56321 8.75778 3.7428 8.75778 3.95562V7.24112H12.0433C12.2561 7.24112 12.4357 7.3143 12.5821 7.46068C12.7284 7.60706 12.8016 7.78665 12.8016 7.99945C12.8016 8.21225 12.7284 8.39184 12.5821 8.53822C12.4357 8.68459 12.2561 8.75778 12.0433 8.75778H8.75778V12.0433C8.75778 12.2561 8.68459 12.4357 8.53822 12.5821C8.39184 12.7284 8.21225 12.8016 7.99945 12.8016C7.78665 12.8016 7.60706 12.7284 7.46068 12.5821C7.3143 12.4357 7.24112 12.2561 7.24112 12.0433V8.75778Z" fill="currentColor"/>
</svg>
